<?xml version="1.0" encoding="UTF-8" standalone="no"?>
<svg
   width="40"
   height="40"
   viewBox="0 0 40 40"
   version="1.1"
   id="svg1945"
   sodipodi:docname="discord-v2.svg"
   inkscape:version="1.2.1 (9c6d41e410, 2022-07-14)"
   xmlns:inkscape="http://www.inkscape.org/namespaces/inkscape"
   xmlns:sodipodi="http://sodipodi.sourceforge.net/DTD/sodipodi-0.dtd"
   xmlns="http://www.w3.org/2000/svg"
   xmlns:svg="http://www.w3.org/2000/svg">
  <defs
     id="defs1949" />
  <sodipodi:namedview
     id="namedview1947"
     pagecolor="#ffffff"
     bordercolor="#666666"
     borderopacity="1.0"
     inkscape:showpageshadow="2"
     inkscape:pageopacity="0.0"
     inkscape:pagecheckerboard="0"
     inkscape:deskcolor="#d1d1d1"
     showgrid="false"
     inkscape:zoom="18.694135"
     inkscape:cx="11.153231"
     inkscape:cy="21.263353"
     inkscape:window-width="1440"
     inkscape:window-height="741"
     inkscape:window-x="367"
     inkscape:window-y="67"
     inkscape:window-maximized="0"
     inkscape:current-layer="svg1945" />
  <path
     id="circle1941"
     style="fill:#48b0d3;fill-opacity:1;stroke-width:0.0390626"
     d="M 20,0 A 20,20 0 0 0 0,20 20,20 0 0 0 20,40 20,20 0 0 0 40,20 20,20 0 0 0 20,0 Z m -4.405823,8.2829285 a 0.09848689,0.09848689 0 0 1 0.100937,0.047455 16.199293,16.199293 0 0 1 0.791473,1.6010287 23.407453,23.407453 0 0 1 7.029191,0 17.662187,17.662187 0 0 1 0.780715,-1.6010287 0.09488368,0.09488368 0 0 1 0.100861,-0.047455 25.354968,25.354968 0 0 1 6.258774,1.9409175 0.07806892,0.07806892 0 0 1 0.03784,0.03784 c 3.472253,5.1069 5.187341,10.868362 4.545975,17.50061 a 0.09848689,0.09848689 0 0 1 -0.04021,0.07088 25.412624,25.412624 0 0 1 -7.686767,3.881225 0.09728587,0.09728587 0 0 1 -0.108109,-0.03662 20.461252,20.461252 0 0 1 -1.569213,-2.553482 0.0978863,0.0978863 0 0 1 0.05226,-0.136871 15.756104,15.756104 0 0 0 2.402115,-1.141052 0.09848689,0.09848689 0 0 0 0.0084,-0.163345 c -0.16515,-0.120707 -0.326687,-0.248049 -0.480423,-0.374761 a 0.09488368,0.09488368 0 0 0 -0.100861,-0.01198 c -4.97238,2.297624 -10.420446,2.297624 -15.45227,0 a 0.09488368,0.09488368 0 0 0 -0.09911,0.0132 c -0.153733,0.127301 -0.315278,0.253432 -0.476227,0.373534 a 0.09848689,0.09848689 0 0 0 0.0096,0.163347 16.790814,16.790814 0 0 0 2.398528,1.141051 0.09728587,0.09728587 0 0 1 0.05348,0.135116 18.223079,18.223079 0 0 1 -1.570435,2.554628 0.09968793,0.09968793 0 0 1 -0.108032,0.0354 25.497299,25.497299 0 0 1 -7.6777649,-3.881225 0.10569327,0.10569327 0 0 1 -0.040283,-0.07202 c -0.5356473,-5.735655 0.5560851,-11.544629 4.5418,-17.500074 a 0.08947896,0.08947896 0 0 1 0.041504,-0.0354 25.282304,25.282304 0 0 1 6.2562559,-1.9409175 z M 14.90181,18.069763 c -1.538558,0 -2.762451,1.39085 -2.762451,3.098755 0,1.707903 1.247313,3.098678 2.762451,3.098678 1.539156,0 2.763595,-1.390775 2.762451,-3.098678 0.02522,-1.695891 -1.211274,-3.098755 -2.762451,-3.098755 z m 10.216827,0 c -1.538557,0 -2.762451,1.39085 -2.762451,3.098755 0,1.707903 1.247313,3.098678 2.762451,3.098678 1.551165,0 2.762902,-1.390775 2.762375,-3.098678 0.02522,-1.695891 -1.21121,-3.098755 -2.762375,-3.098755 z" />
</svg>
