<?xml version="1.0" encoding="UTF-8" standalone="no"?>
<svg
   fill="#000000"
   viewBox="0 0 40 40"
   width="40"
   height="40"
   version="1.1"
   id="svg2300"
   sodipodi:docname="instagram.svg"
   inkscape:version="1.2 (dc2aedaf03, 2022-05-15)"
   xmlns:inkscape="http://www.inkscape.org/namespaces/inkscape"
   xmlns:sodipodi="http://sodipodi.sourceforge.net/DTD/sodipodi-0.dtd"
   xmlns="http://www.w3.org/2000/svg"
   xmlns:svg="http://www.w3.org/2000/svg">
  <defs
     id="defs2304" />
  <sodipodi:namedview
     id="namedview2302"
     pagecolor="#ffffff"
     bordercolor="#666666"
     borderopacity="1.0"
     inkscape:showpageshadow="2"
     inkscape:pageopacity="0.0"
     inkscape:pagecheckerboard="0"
     inkscape:deskcolor="#d1d1d1"
     showgrid="false"
     inkscape:zoom="9.46"
     inkscape:cx="22.145877"
     inkscape:cy="22.093023"
     inkscape:window-width="1360"
     inkscape:window-height="702"
     inkscape:window-x="0"
     inkscape:window-y="0"
     inkscape:window-maximized="1"
     inkscape:current-layer="svg2300" />
  <path
     id="path2298"
     style="fill:#48b0d3;fill-opacity:1;stroke-width:0.867625"
     d="m 12.194791,0.90508568 c -6.2182811,0 -11.27503882,5.05990522 -11.27503882,11.28335832 v 15.623112 c 0,6.223455 5.05675772,11.283358 11.27503882,11.283358 h 15.610418 c 6.21828,0 11.275039,-5.059903 11.275039,-11.283358 V 12.188444 c 0,-6.2234531 -5.056759,-11.28335832 -11.275039,-11.28335832 z M 30.407582,7.848691 c 0.95399,0 1.734914,0.7811177 1.734914,1.7359012 0,0.9547828 -0.780925,1.7359008 -1.734914,1.7359008 -0.953989,0 -1.734916,-0.781118 -1.734916,-1.7359008 0,-0.9547835 0.780927,-1.7359012 1.734916,-1.7359012 z M 20,10.452543 c 5.26429,0 9.540123,4.278788 9.540123,9.547458 0,5.268668 -4.275834,9.547457 -9.540123,9.547457 -5.264291,0 -9.540124,-4.278789 -9.540124,-9.547457 0,-5.26867 4.275834,-9.547458 9.540124,-9.547458 z" />
  <ellipse
     style="fill:#48b0d3;fill-opacity:1;stroke-width:1.16501"
     id="path4734"
     cx="20"
     cy="20"
     rx="5.9677677"
     ry="5.9006681" />
</svg>
