<svg width="40" height="40" xmlns="http://www.w3.org/2000/svg"><path style="fill:#48b0d3;fill-opacity:1;stroke-width:.867625" d="M12.195.905C5.977.905.92 5.965.92 12.188v15.624c0 6.223 5.057 11.283 11.275 11.283h15.61c6.218 0 11.275-5.06 11.275-11.283V12.188C39.08 5.965 34.023.905 27.805.905zM30.408 7.85a1.74 1.74 0 0 1 1.734 1.736 1.74 1.74 0 0 1-1.734 1.735 1.74 1.74 0 0 1-1.735-1.735c0-.955.78-1.736 1.735-1.736zM20 10.453c5.264 0 9.54 4.278 9.54 9.547 0 5.269-4.276 9.547-9.54 9.547-5.264 0-9.54-4.278-9.54-9.547 0-5.269 4.276-9.547 9.54-9.547z"/><ellipse style="fill:#48b0d3;fill-opacity:1;stroke-width:1.16501" cx="20" cy="20" rx="5.968" ry="5.901"/></svg>